<svg width="187" height="304" viewBox="0 0 187 304" fill="none" xmlns="http://www.w3.org/2000/svg">
<path d="M178.223 294.749H8.63586M178.223 294.749V65.1441V55.5321V8.54278M178.223 294.749L186.325 302.759M8.63586 294.749V65.1441V55.5321V8.54278M8.63586 294.749L0.533203 302.759M8.63586 8.54278H178.223M8.63586 8.54278L0.533203 0.533438M178.223 8.54278L186.325 0.533438M186.325 0.533438V302.759H0.533203V0.533438H186.325Z" stroke="#333436" stroke-width="1.06667"/>
<path d="M95.5879 6.93833H180.063V297.417H95.5879V6.93833Z" fill="white" stroke="#333436" stroke-width="1.06667"/>
<path d="M108.023 282.222L95.8763 296.558M108.023 282.222H167.631M108.023 282.222V185.818V174.07V22.133M167.631 282.222L180.064 297.417M167.631 282.222V185.818V174.07V22.133M167.631 22.133L180.064 6.93967M167.631 22.133H108.023M108.023 22.133L95.7363 7.11969" stroke="#333436" stroke-width="1.06667"/>
<path d="M167.628 47.6025L108.322 151.202C108.135 151.529 108.135 151.926 108.32 152.253L167.628 256.3" stroke="#D91C2B" stroke-width="1.06667"/>
<path d="M180.064 49.9084H184.164V60.2217H180.064V49.9084Z" stroke="#333436" stroke-width="1.06667"/>
<path d="M180.064 147.688H184.164V158.001H180.064V147.688Z" stroke="#333436" stroke-width="1.06667"/>
<path d="M180.064 245.468H184.164V255.781H180.064V245.468Z" stroke="#333436" stroke-width="1.06667"/>
<path d="M100.787 142.909H104.887V164.892H100.787V142.909Z" fill="#333436"/>
<path d="M101.217 149.786H117.989V152.488H101.217V149.786Z" fill="#333436"/>
<path d="M91.2696 6.93833H6.79492V297.417H91.2696V6.93833Z" fill="white" stroke="#333436" stroke-width="1.06667"/>
<path d="M78.8349 282.222L90.9816 296.558M78.8349 282.222H19.2269M78.8349 282.222V185.818V174.07V22.133M19.2269 282.222L6.79492 297.417M19.2269 282.222V185.818V174.07V22.133M19.2269 22.133L6.79492 6.93967M19.2269 22.133H78.8349M78.8349 22.133L91.1216 7.11969" stroke="#333436" stroke-width="1.06667"/>
<path d="M19.1543 47.6025L78.461 151.202C78.6476 151.529 78.6476 151.926 78.4623 152.253L19.1543 256.3" stroke="#D91C2B" stroke-width="1.06667"/>
<path d="M6.79338 49.9084H2.69336V60.2217H6.79338V49.9084Z" stroke="#333436" stroke-width="1.06667"/>
<path d="M6.79338 245.468H2.69336V255.781H6.79338V245.468Z" stroke="#333436" stroke-width="1.06667"/>
<path d="M6.79338 147.688H2.69336V158.001H6.79338V147.688Z" stroke="#333436" stroke-width="1.06667"/>
<path d="M86.0707 142.909H81.9707V164.892H86.0707V142.909Z" fill="#333436"/>
<path d="M86.0698 149.66H69.5645V152.362H86.0698V149.66Z" fill="#333436"/>
<path d="M44.3338 273.483V272.366L49.0698 267.849C49.4912 267.454 49.8005 267.109 50.0005 266.813C50.2112 266.506 50.3498 266.227 50.4152 265.975C50.4938 265.713 50.5325 265.461 50.5325 265.219C50.5325 264.629 50.3218 264.163 49.9005 263.823C49.4792 263.483 48.8645 263.314 48.0565 263.314C47.4352 263.314 46.8765 263.418 46.3778 263.626C45.8792 263.823 45.4472 264.135 45.0818 264.562L43.9512 263.593C44.3952 263.034 44.9872 262.607 45.7298 262.311C46.4832 262.005 47.3085 261.851 48.2058 261.851C49.0138 261.851 49.7178 261.983 50.3165 262.246C50.9138 262.498 51.3738 262.865 51.6952 263.347C52.0272 263.829 52.1938 264.398 52.1938 265.055C52.1938 265.427 52.1445 265.795 52.0445 266.157C51.9445 266.518 51.7565 266.901 51.4792 267.306C51.2018 267.711 50.8032 268.166 50.2832 268.67L46.0618 272.695L45.6632 272.054H52.6925V273.483H44.3338Z" fill="#333436"/>
</svg>
